<svg version="1.1" xmlns="http://www.w3.org/2000/svg" viewBox="0 0 1485 517" width="1485" height="517">
  <!-- svg-source:excalidraw -->
  
  <defs>
    <style>
      @font-face {
        font-family: "Virgil";
        src: url("https://excalidraw.com/FG_Virgil.woff2");
      }
      @font-face {
        font-family: "Cascadia";
        src: url("https://excalidraw.com/Cascadia.woff2");
      }
    </style>
  </defs>
  <rect x="0" y="0" width="1485" height="517" fill="#ffffff"></rect><g transform="translate(1226 281) rotate(0 124.5 55.5)"><path d="M0.4740620910014629 0.487623531617403 C72.73464405689651 0.8936744952474418, 144.62784222703962 1.2015490740667167, 250.17238730578876 -1.3756902709872723 M-0.7130358137788534 0.41648268096673485 C86.9150745878844 -0.4964492248132485, 174.58333462062677 -1.6951790559587256, 249.59455291204284 0.217959619561553 M250.229580655694 1.0878310054540634 C247.34489622883498 24.794194672256708, 246.78113690190017 48.96099229902029, 248.17062689363956 112.33078287541866 M249.2015781328082 0.3780487850308418 C248.8364402923733 23.60523870661855, 247.38576456643642 47.45926731228829, 249.02167009562254 111.03718579560518 M248.12743325707507 110.90952987076841 C148.8805231831173 113.11799657988172, 50.894040572782565 113.75363599024396, 0.8150963256709575 112.61227246279263 M248.76898256121657 111.36051488499963 C189.15912087331824 112.43054969146174, 128.46224741181155 112.23125911407602, -0.008848485959792136 111.02775183487375 M1.0026719719171524 110.97875641286373 C-2.276119262501598 90.04099926576018, 0.017878978922962974 64.74629326611756, 0.860740914940834 0.824705109000206 M0.923789493739605 111.24265230447054 C-0.05378530181944363 70.74236338958144, 1.0317480786889792 29.785417065024376, -0.0693662241101265 -0.3770040199160576" stroke="#000000" stroke-width="1" fill="none"></path></g><g transform="translate(359 300) rotate(0 103 45.5)"><path d="M-0.44509313070681694 -1.1374643487591445 C66.99347969136589 0.40350805079277796, 131.78341263762684 0.34745653415058886, 206.14215791445596 -1.3686296965372742 M-0.24417670169976652 0.15149305057047308 C55.16950508604247 0.8272640954391771, 109.01998268048942 0.485906026247149, 205.35190511463028 0.14971471848267018 M207.58142851293087 1.1357476860284805 C205.32084378220142 29.189850663393738, 206.38274916626514 58.75934975892306, 205.48638294637203 90.19120432436466 M206.36278308182955 -0.09785700589418411 C206.4698839341849 20.877020236104727, 206.4150779401511 42.375815629959106, 206.2879647091031 91.34447311609983 M204.5038173338222 91.87164733240884 C143.8425620518576 93.20807835356314, 78.30338832181563 93.21924740790483, 0.04663256036927104 92.14807198508237 M206.237050018883 90.36605590152395 C123.88275993621488 92.46429516283851, 42.866804262009296 92.81612376958033, -0.5827258506939262 90.73342035348767 M1.330782875418663 89.22017933428288 C-0.8927323589473962 72.1624289818108, 1.2337787380069494 54.203082560002805, 1.5858044475317001 0.3664868026971817 M0.03718579560518265 91.99553965777159 C-0.8650815062969924 70.35606819465757, -1.0930594974011183 48.31619847714901, -0.3852735683321953 0.4595830366015434" stroke="#000000" stroke-width="1" fill="none"></path></g><g transform="translate(717.9999999999998 163.93198529411785) rotate(0 171 55.9522058823529)"><path d="M0.8817846643356143 0.08432734444476961 C105.02719016860839 1.1714254468254448, 209.0179572533316 2.056677326869428, 342.5204395061891 -0.5760351441342174 M-0.3467138664402395 -0.13213813680325445 C83.19359694180561 -2.481200076547835, 166.73114978360553 -1.7615658211245755, 341.5515201763705 -0.1627672202405065 M340.14083267748356 0.13417480885982513 C342.355746338001 41.319373801947705, 340.18953950130054 80.29606144249652, 343.36828638613224 112.45655675407708 M342.22427701205015 0.07564867287874222 C342.5519757835025 36.777299130066986, 342.1039398280734 74.51057342758726, 342.2554132863879 110.95915899601043 M342.3700205855335 112.13806085255838 C249.45596724860198 113.08666553595167, 157.08489424876151 113.40977806796099, -0.9136897619074045 113.21136113237539 M342.16963659670046 111.47398469158985 C211.6022939607715 110.86279577642898, 81.42440148945133 110.68185530772504, -0.3747095979705244 112.17207612952102 M-1.3272259086370468 113.38257594581903 C1.5074798155340412 84.08899975376853, 2.3533274221929767 59.707029396678976, -1.7198588699102402 0.6924905627965927 M0.1779031679034233 111.46822963085235 C-1.1517223768796332 82.29762528966558, -0.18757266336339784 53.606398695060825, -0.9762785509228706 0.058068402111530304" stroke="#000000" stroke-width="1" fill="none"></path></g><g transform="translate(728.453874538749 196.59636829824177) rotate(0 148.91512915129147 29.025830258302562)"><text x="148.9151291512915" y="41.05166051660511" font-family="Virgil, Segoe UI Emoji" font-size="45.43173431734311px" fill="#000000" text-anchor="middle" style="white-space: pre;" direction="ltr">invenio-marc21</text></g><g><g transform="translate(576.138972166402 299.41674348650685) rotate(0 65.14403327602776 -47.48941732515033)"><path d="M-0.6681969076395035 -0.932928666472435 C21.205789186221462 -16.88198292653825, 109.24330947032622 -78.66751299704444, 130.956263459695 -94.59728319949306 M1.1818609865102916 1.191679838290438 C22.94052525015819 -14.557440636873281, 108.32671186990528 -80.03028291609156, 130.11339686834017 -96.1705144885911" stroke="#000000" stroke-width="1" fill="none"></path></g><g transform="translate(576.138972166402 299.41674348650685) rotate(0 65.14403327602776 -47.48941732515033)"><path d="M112.24071422062926 -70.66263163915586 C119.81358672670089 -79.76507649080668, 121.12732719716632 -84.65880807451383, 130.30017063044707 -96.41424382664098 M113.79970674805455 -70.5343402930231 C118.45493595186473 -78.17978388545501, 121.59897786935355 -82.69927286412536, 129.49811898940007 -96.2490088064207" stroke="#000000" stroke-width="1" fill="none"></path></g><g transform="translate(576.138972166402 299.41674348650685) rotate(0 65.14403327602776 -47.48941732515033)"><path d="M99.87683106385315 -87.04110518437452 C111.01222506425799 -91.55377196381133, 115.73875470167316 -91.9265713794026, 130.30017063044707 -96.41424382664098 M101.43582359127844 -86.91281383824176 C109.05947825978438 -90.54884069509718, 115.25809354521995 -91.02192706186429, 129.49811898940007 -96.2490088064207" stroke="#000000" stroke-width="1" fill="none"></path></g></g><g><g transform="translate(1074.0774746011107 238.2947594594716) rotate(0 69.55929013757839 33.222937388661734)"><path d="M-0.42252102792263024 -0.3125388532876968 C22.938973346249707 10.86778470445097, 116.38493224628989 55.49140008332434, 139.54110130307942 66.61332825532082 M1.5565167030785232 -1.5222256966028362 C24.800666603948493 9.873027082706324, 115.30286415198606 56.472419943076034, 138.5074876379848 67.96810047392633" stroke="#000000" stroke-width="1" fill="none"></path></g><g transform="translate(1074.0774746011107 238.2947594594716) rotate(0 69.55929013757839 33.222937388661734)"><path d="M108.20027717007817 64.12215897591551 C115.5047782835885 63.40129782649916, 122.55836009518877 64.68247715100675, 140.3349233847738 68.1190337247112 M107.97766500516356 64.41034638287266 C120.73665299676851 65.90679383921668, 132.52329040656656 66.83275483939855, 137.55376539199358 68.84156423126247" stroke="#000000" stroke-width="1" fill="none"></path></g><g transform="translate(1074.0774746011107 238.2947594594716) rotate(0 69.55929013757839 33.222937388661734)"><path d="M117.46646391841924 45.812112948373475 C122.40443243060659 49.59361961878205, 127.16298436811186 55.409793086029836, 140.3349233847738 68.1190337247112 M117.24385175350463 46.100300355330624 C126.61433492421094 54.601691434032006, 134.83397754235426 62.57605762925202, 137.55376539199358 68.84156423126247" stroke="#000000" stroke-width="1" fill="none"></path></g></g><g transform="translate(570 232) rotate(325.5610106911964 51 13)"><text x="0" y="18" font-family="Virgil, Segoe UI Emoji" font-size="20px" fill="#000000" text-anchor="start" style="white-space: pre;" direction="ltr">marc21-xml</text></g><g transform="translate(794 10) rotate(0 101.5 38.5)"><path d="M-0.9943912734912513 -1.0370474961996434 C58.65834251679782 -0.902663158966595, 121.46226120048289 0.08837464729065278, 204.09006710450825 1.341310517493975 M-0.49671925627872343 -0.7924758302610218 C65.136032084069 0.5495059842070357, 132.37945868328515 -0.7739174409644348, 202.2824762035161 -0.11286007511137126 M203.75369738042355 1.7262504249811172 C203.54251763425768 29.155981696397067, 202.11818644605577 60.65091377347708, 203.29369209706783 77.81121756136417 M202.74984658509493 0.8445091173052788 C201.5636474300176 15.550443203002214, 202.3674382377416 33.82570559680462, 202.95394361764193 77.81236719340086 M202.87233700967448 75.57805639728257 C145.3067935727065 76.01137218060019, 89.60154049085325 77.57517888839553, 0.19959578735660313 78.19242109059044 M202.90765018376072 76.15054831373884 C162.3292320697722 76.61114957586437, 121.77649446504266 77.78786472746293, -0.3931114857779681 76.34573721169855 M-0.4002075344324112 78.58210541307926 C1.550213282480836 56.24491082951427, 0.5322846821695566 33.49342486411333, 1.515244945883751 -1.6112172454595566 M-0.6539062187075615 76.29291676729918 C-0.07579477973282334 49.886136343330136, 0.3370505934208632 23.655617821216573, -0.4507704898715019 0.8576834127306938" stroke="#000000" stroke-width="1" fill="none"></path></g><g transform="translate(865.5 35.5) rotate(0 30 13)"><text x="30" y="18" font-family="Virgil, Segoe UI Emoji" font-size="20px" fill="#000000" text-anchor="middle" style="white-space: pre;" direction="ltr">dojson</text></g><g><g transform="translate(845.3052871370596 151.10559339049303) rotate(0 2.178425289574079 -28.684299019083355)"><path d="M0.7020254999399185 -0.5270924001932143 C1.263649111596548 -10.5186166834915, 1.9815513531754583 -49.55904366974249, 2.494001991199275 -59.179178182532965 M-0.38854984193108977 1.8105801443662495 C0.6249203517210269 -8.05458463476877, 4.143324318079543 -47.37625478466503, 4.745400421079194 -57.70556944897766" stroke="#000000" stroke-width="1" fill="none"></path></g><g transform="translate(845.3052871370596 151.10559339049303) rotate(0 2.178425289574079 -28.684299019083355)"><path d="M11.844971648705439 -30.687086635418744 C10.526931910725835 -34.96824065601852, 10.2678707217887 -42.50995046082431, 6.327505834158456 -55.89517469993229 M13.481081455302672 -30.030612380393357 C10.059108578219089 -39.35367443023951, 6.816139602151793 -51.3790476152904, 4.038317188378369 -57.32029515048857" stroke="#000000" stroke-width="1" fill="none"></path></g><g transform="translate(845.3052871370596 151.10559339049303) rotate(0 2.178425289574079 -28.684299019083355)"><path d="M-8.328494228068841 -32.22207604947123 C-5.056870480282281 -36.27277323611349, -0.7361172833545302 -43.46600714473122, 6.327505834158456 -55.89517469993229 M-6.692384421471609 -31.56560179444584 C-2.47773112275672 -40.42238902346809, 1.9098439412279493 -51.86715774538477, 4.038317188378369 -57.32029515048857" stroke="#000000" stroke-width="1" fill="none"></path></g></g><g><g transform="translate(957.5635090809919 97.62730627306271) rotate(0 -0.07438382181521774 31.35282376931957)"><path d="M0.5239284127950667 -0.6515859693288802 C0.4910879963206373 9.90320195486916, -0.9069375070099417 51.39225693001216, -1.2449506529765586 62.15421953682739 M-0.6601478998269885 1.6207274514343588 C-0.21112112063558158 12.426917361218091, 0.8389499484925835 53.265621492395084, 1.0961830093459777 63.357233507968" stroke="#000000" stroke-width="1" fill="none"></path></g><g transform="translate(957.5635090809919 97.62730627306271) rotate(0 -0.07438382181521774 31.35282376931957)"><path d="M-10.977199198701195 34.26449253619203 C-8.889331807137516 39.72143783653119, -3.609309230922052 48.89897760064118, 3.090545348723381 65.22171759460073 M-9.933529356517605 35.2514445802618 C-6.328675258063784 43.68273963223108, -2.14473552764379 53.60624514564698, 1.9482503681378058 63.50070974830489" stroke="#000000" stroke-width="1" fill="none"></path></g><g transform="translate(957.5635090809919 97.62730627306271) rotate(0 -0.07438382181521774 31.35282376931957)"><path d="M9.537123384949824 33.73291815781662 C7.256918341036247 39.39248264845637, 8.174071301478135 48.68307463227681, 3.090545348723381 65.22171759460073 M10.580793227133414 34.71987020188639 C7.504663318156647 43.13466068211006, 5.009810589144739 53.23122942661458, 1.9482503681378058 63.50070974830489" stroke="#000000" stroke-width="1" fill="none"></path></g></g><g transform="translate(737 127) rotate(0 51 13)"><text x="0" y="18" font-family="Virgil, Segoe UI Emoji" font-size="20px" fill="#000000" text-anchor="start" style="white-space: pre;" direction="ltr">marc21-xml</text></g><g transform="translate(972 122) rotate(0 55.5 13)"><text x="0" y="18" font-family="Virgil, Segoe UI Emoji" font-size="20px" fill="#000000" text-anchor="start" style="white-space: pre;" direction="ltr">marc21-json</text></g><g transform="translate(1112 232) rotate(32.57405713457252 19 13)"><text x="0" y="18" font-family="Virgil, Segoe UI Emoji" font-size="20px" fill="#000000" text-anchor="start" style="white-space: pre;" direction="ltr">json</text></g><g transform="translate(10 293.43589743589695) rotate(0 96.50000000000011 52.134615384615444)"><path d="M-1.450762763619423 -1.769362673163414 C59.29221431985505 3.5888361018151063, 119.16310583204046 2.877982048317792, 194.1314682811501 1.1053993850946426 M0.9323378875851631 0.8821716234087944 C44.986811334639846 -0.6951025202125329, 90.66641448140156 -2.0868793203681726, 193.8477386310699 -0.8085396364331245 M193.3181786388161 -1.198925718665123 C192.19591227648658 39.92768183897899, 193.49577847598 83.30161910853717, 191.10889051854633 102.52345150823788 M192.18220937997125 0.42898058146238327 C193.1784377189298 38.30467855211066, 193.09266401249366 78.9672341277394, 192.55355037003778 103.69914285208182 M192.79621122777485 103.18140667791562 C150.52056808099167 102.61557200911538, 103.14920655041945 103.44216302397744, -1.2304749637842178 104.0122539412518 M193.8867393806579 104.06587449575858 C139.98899482116119 106.31986112850802, 86.58600886762152 105.4369496847977, 0.16836632043123245 103.4798843052526 M0.3676123470067978 105.28483313436703 C-0.8941455668468901 77.91033878145892, -0.6634627169628569 51.58493195296486, 1.1070241779088974 1.1640918403863907 M-0.8610545322299004 104.3059054997106 C-0.5283556775834708 73.87084237208168, -0.3063443498399405 43.93894544318323, -0.8944834396243095 0.38988589495420456" stroke="#000000" stroke-width="1" fill="none"></path></g><g transform="translate(385 321.5) rotate(0 81 23)"><text x="81" y="32" font-family="Virgil, Segoe UI Emoji" font-size="36px" fill="#000000" text-anchor="middle" style="white-space: pre;" direction="ltr">invenio-XY</text></g><g><g transform="translate(209.95128205128225 339.8587828737644) rotate(0 71.30271388735278 0.26593436433594775)"><path d="M0.734352359175682 -0.07727023065090188 C24.66489653394598 -0.07348262687636603, 119.33678817977402 0.43186220426791994, 142.94467915630213 0.4431174594096433 M-0.3392513815965503 -1.1634410470817238 C23.461908691842517 -1.0396088033025532, 117.64049058383534 1.3706086488415459, 141.83319922409265 1.695309775753651" stroke="#000000" stroke-width="1" fill="none"></path></g><g transform="translate(209.95128205128225 339.8587828737644) rotate(0 71.30271388735278 0.26593436433594775)"><path d="M113.3141856469046 10.871564237280444 C119.50977243298787 7.366926715214081, 125.7612811031394 7.941558965685255, 143.39374799154012 2.944863232656155 M113.61301844341864 11.82948476622875 C124.53774893556555 8.454552345086816, 133.40495979711437 5.394775957119728, 141.06248602143734 2.5983044010240177" stroke="#000000" stroke-width="1" fill="none"></path></g><g transform="translate(209.95128205128225 339.8587828737644) rotate(0 71.30271388735278 0.26593436433594775)"><path d="M113.72435135720971 -9.645544878672743 C119.89059247643021 -8.084367650697287, 126.04087860316639 -2.4464307014927558, 143.39374799154012 2.944863232656155 M114.02318415372375 -8.687624349724436 C124.7894413447414 -4.684348168085059, 133.50909677080043 -0.36317852732671163, 141.06248602143734 2.5983044010240177" stroke="#000000" stroke-width="1" fill="none"></path></g></g><g transform="translate(244 311) rotate(0 42.5 13)"><text x="0" y="18" font-family="Virgil, Segoe UI Emoji" font-size="20px" fill="#000000" text-anchor="start" style="white-space: pre;" direction="ltr">FORMAT</text></g><g><g transform="translate(213.42692307692334 366.42632919665016) rotate(0 68.11461567147654 0.16619760796913852)"><path d="M-0.24610434472560883 0.2971757501363754 C22.566217414088 0.1647186145730378, 113.81863221499795 -0.5847339701912992, 136.47533568767875 -0.5674810227468243 M1.8255521449539813 -0.5924109263811261 C24.529660213546283 -0.5479087347831516, 113.4864886349878 1.072515359336541, 135.61687351136513 0.9248061423194032" stroke="#000000" stroke-width="1" fill="none"></path></g><g transform="translate(213.42692307692334 366.42632919665016) rotate(0 68.11461567147654 0.16619760796913852)"><path d="M107.84627716367477 11.261038361143852 C114.72953232656211 7.335308114489658, 123.88403667508271 3.902374207750177, 136.72598793475933 -1.0128621960986037 M106.36155881856912 10.421801766407276 C113.19354608962074 7.8728820643191995, 120.82687401069778 6.532445909296828, 136.60346198200293 0.5368722994815927" stroke="#000000" stroke-width="1" fill="none"></path></g><g transform="translate(213.42692307692334 366.42632919665016) rotate(0 68.11461567147654 0.16619760796913852)"><path d="M107.99804028690365 -9.25960905408814 C114.87967050526399 -7.711075046735258, 123.99368691695311 -5.669433453101034, 136.72598793475933 -1.0128621960986037 M106.513321941798 -10.098845648824716 C113.35929779500641 -7.712098521301192, 120.95611426902073 -4.115640153771247, 136.60346198200293 0.5368722994815927" stroke="#000000" stroke-width="1" fill="none"></path></g></g><g transform="translate(262 367) rotate(0 16 13)"><text x="0" y="18" font-family="Virgil, Segoe UI Emoji" font-size="20px" fill="#000000" text-anchor="start" style="white-space: pre;" direction="ltr">File</text></g><g transform="translate(703 424) rotate(0 217 41.5)"><path d="M-0.4545029942640721 0.4649910789718091 C87.71355041301867 -2.337066025647739, 174.58720845404773 -1.2212391008840597, 434.96723339198263 1.00006759252066 M-0.08927996925003825 0.40314993140285305 C87.56443978730456 0.3949461974256525, 175.54284579549187 0.3369904261250506, 434.40354086377255 -0.49392483494035894 M435.2335369735956 0.06325243413448334 C435.18432756267487 19.608710879832508, 435.0481652816385 37.63364625424147, 433.8167493492365 81.30783699452877 M434.7825276777148 -0.60646902769804 C433.34133904524145 31.805446467548613, 435.13645952291785 63.6042104125023, 433.285320751369 82.71798933297396 M434.4813568345556 83.54202163260454 C344.24285286675916 81.9588760220079, 253.9315254940372 81.60421328872715, 0.9225644732558785 83.82485013452009 M434.44194294975995 83.08103266174285 C303.7676360684817 84.00329125509634, 173.5044168800471 84.41353263068906, 0.1445687576299399 83.42122435482958 M-1.1209046691656113 83.81071470677853 C-1.6561646672338248 52.190830897539854, 1.4902353075891732 19.32679120451212, -0.3462555259466171 1.8995070308446884 M0.5350582525134087 82.79690707474947 C0.6356702696532011 61.150810699909925, 0.07491001002490516 41.51119168102741, 0.048334114253520966 -0.8639708682894707" stroke="#000000" stroke-width="1" fill="none"></path></g><g transform="translate(748 446.5) rotate(0 172.5 23)"><text x="172.5" y="32" font-family="Virgil, Segoe UI Emoji" font-size="36px" fill="#000000" text-anchor="middle" style="white-space: pre;" direction="ltr">invenio-records-files</text></g><g><g transform="translate(576.4018339213824 382.32897142765273) rotate(0 60.88076800853008 32.583111499468885)"><path d="M0.5645722299814224 0.4661134332418442 C21.05541097923955 11.05063745456596, 102.13854413255258 53.40011535672643, 122.3597020956779 64.22341196105836 M-0.5981660786177962 -0.3347809596452862 C19.76500219330965 10.348131832199515, 100.45096327379487 54.87448226285339, 121.28646304100735 65.50100395858308" stroke="#000000" stroke-width="1" fill="none"></path></g><g transform="translate(576.4018339213824 382.32897142765273) rotate(0 60.88076800853008 32.583111499468885)"><path d="M92.36045254626387 60.89170709176328 C98.24589681728357 61.02977158023304, 107.67872596595276 62.66303467172095, 121.49867347270234 65.1107523071768 M90.8310145051133 61.388022712602876 C98.58624088188685 62.42785809489368, 103.1511976882509 62.89683846029506, 122.28467489421351 66.18537007302066" stroke="#000000" stroke-width="1" fill="none"></path></g><g transform="translate(576.4018339213824 382.32897142765273) rotate(0 60.88076800853008 32.583111499468885)"><path d="M102.01693257902274 42.78446004085107 C105.58453243853151 47.51690330207078, 112.5914368539497 53.69911366242643, 121.49867347270234 65.1107523071768 M100.48749453787217 43.28077566169067 C106.2080874390044 48.1158222718642, 108.76327245561234 52.353405087600784, 122.28467489421351 66.18537007302066" stroke="#000000" stroke-width="1" fill="none"></path></g></g><g><g transform="translate(1147.741935483871 440.8915137070954) rotate(0 33.97024058126465 -36.416384779411175)"><path d="M-0.5367294698953629 -0.4682413190603256 C10.7928071201611 -12.375943278982552, 56.946987396860344 -59.01356903172687, 68.47721063242462 -70.77620568403191 M1.3823488290701063 -1.7596719569060952 C12.573402578171311 -14.042589668059037, 56.748195601645705 -60.49231583752328, 67.9088911792839 -72.36452823976204" stroke="#000000" stroke-width="1" fill="none"></path></g><g transform="translate(1147.741935483871 440.8915137070954) rotate(0 33.97024058126465 -36.416384779411175)"><path d="M55.21495538299927 -43.62601927301962 C61.60811728266363 -52.700832213844194, 65.23213983677034 -63.533261803775986, 66.97719951780681 -74.05271940032169 M55.34962578212866 -44.951182898200344 C61.302656149599805 -54.04180296425295, 64.96587294911424 -64.6664450265482, 67.26895318987016 -72.81121523032114" stroke="#000000" stroke-width="1" fill="none"></path></g><g transform="translate(1147.741935483871 440.8915137070954) rotate(0 33.97024058126465 -36.416384779411175)"><path d="M40.30430250662216 -57.725396322592644 C51.87064863951403 -61.91624101436537, 60.589133191148264 -67.93139391202976, 66.97719951780681 -74.05271940032169 M40.43897290575155 -59.050559947773365 C51.739177843868895 -62.953405805303696, 60.86304001254881 -68.41451152668884, 67.26895318987016 -72.81121523032114" stroke="#000000" stroke-width="1" fill="none"></path></g></g><g transform="translate(609 375) rotate(29.357753542791272 16 13)"><text x="0" y="18" font-family="Virgil, Segoe UI Emoji" font-size="20px" fill="#000000" text-anchor="start" style="white-space: pre;" direction="ltr">File</text></g><g transform="translate(1148 394) rotate(313.83086067209257 16 13)"><text x="0" y="18" font-family="Virgil, Segoe UI Emoji" font-size="20px" fill="#000000" text-anchor="start" style="white-space: pre;" direction="ltr">File</text></g><g><g transform="translate(578.8819188191882 328.4515445994982) rotate(0 62.873393186095086 -28.32359147232242)"><path d="M0.33746279776096344 0.8667107194662094 C21.43444288598433 -8.571239942846914, 105.66682706410361 -47.809735116055705, 126.69129433494416 -57.513893664111016 M-0.9445079627539963 0.2761299018468706 C20.001776822088875 -8.964810240067637, 104.7353495993774 -47.028434914201966, 125.84464703184906 -56.48586136707534" stroke="#000000" stroke-width="1" fill="none"></path></g><g transform="translate(578.8819188191882 328.4515445994982) rotate(0 62.873393186095086 -28.32359147232242)"><path d="M105.76710908439374 -35.26417503980103 C109.51266477673984 -42.13024233094588, 116.42493751536406 -50.039804677393946, 124.63725459260289 -54.52629621931781 M104.98608246025061 -36.20034905252162 C109.16326217054444 -39.76982509636565, 113.64544479080995 -44.40216106363523, 126.69843897653166 -57.094899593381776" stroke="#000000" stroke-width="1" fill="none"></path></g><g transform="translate(578.8819188191882 328.4515445994982) rotate(0 62.873393186095086 -28.32359147232242)"><path d="M97.3681892484182 -53.98790725254901 C103.57172755299499 -55.08975467171073, 113.0802560575966 -57.211477787958856, 124.63725459260289 -54.52629621931781 M96.58716262427508 -54.92408126526959 C102.49099371668932 -54.522050892350286, 108.72403507297325 -55.25119326380291, 126.69843897653166 -57.094899593381776" stroke="#000000" stroke-width="1" fill="none"></path></g></g><g transform="translate(604 301) rotate(338.7494944928667 55.5 13)"><text x="0" y="18" font-family="Virgil, Segoe UI Emoji" font-size="20px" fill="#000000" text-anchor="start" style="white-space: pre;" direction="ltr">marc21-json</text></g><g transform="translate(838 244.5) rotate(0 67 10.5)"><text x="0" y="15" font-family="Virgil, Segoe UI Emoji" font-size="16px" fill="#000000" text-anchor="start" style="white-space: pre;" direction="ltr">create repo json</text></g><g transform="translate(992 171.5) rotate(0 67 10.5)"><text x="0" y="15" font-family="Virgil, Segoe UI Emoji" font-size="16px" fill="#000000" text-anchor="start" style="white-space: pre;" direction="ltr">create repo json</text></g><g transform="translate(48 298) rotate(0 61 46)"><text x="0" y="32" font-family="Virgil, Segoe UI Emoji" font-size="36px" fill="#000000" text-anchor="start" style="white-space: pre;" direction="ltr">Source</text><text x="0" y="78" font-family="Virgil, Segoe UI Emoji" font-size="36px" fill="#000000" text-anchor="start" style="white-space: pre;" direction="ltr">System</text></g><g transform="translate(1258 317) rotate(0 96 23)"><text x="0" y="32" font-family="Virgil, Segoe UI Emoji" font-size="36px" fill="#000000" text-anchor="start" style="white-space: pre;" direction="ltr">Repository</text></g><g><g transform="translate(723 266) rotate(0 165.96501215994363 -15.05738205304911)"><path d="M-1.114851102232933 0.2224441140890121 C45.80690650045872 0.6836836427450179, 226.30654343664648 7.924897028009097, 281.9998311907053 2.0514065355062483 C337.69311894476414 -3.8220839569966003, 324.537772360444 -28.92372233768304, 333.04487542212007 -35.018498840928075 M0.5007133397553116 -0.706376671353355 C47.223372395047924 -0.06111864195205263, 225.75135987193323 8.679044755936289, 281.0516971021984 3.0908202178683135 C336.3520343324635 -2.4974043201996627, 323.59274713397957 -28.106429005324216, 332.30273672134615 -34.23572389976121" stroke="#000000" stroke-width="1" fill="none"></path></g><g transform="translate(723 266) rotate(0 165.96501215994363 -15.05738205304911)"><path d="M330.2312083524176 -4.335581768552103 C329.2860832332825 -14.377265162935334, 329.99776495727883 -24.52075509356626, 331.4406492480729 -36.060146274128925 M329.3033065852233 -5.081786003211775 C330.9137512465084 -15.219389819928267, 331.6099517952111 -26.57317123274781, 333.21205229998566 -34.66342739210464" stroke="#000000" stroke-width="1" fill="none"></path></g><g transform="translate(723 266) rotate(0 165.96501215994363 -15.05738205304911)"><path d="M311.5829689158634 -12.900811964103404 C316.91048671399636 -19.86471463294015, 323.9459194154947 -27.10367392377914, 331.4406492480729 -36.060146274128925 M310.6550671486691 -13.647016198763076 C319.1460537302342 -20.837768515012165, 326.65591713777457 -29.062000296115514, 333.21205229998566 -34.66342739210464" stroke="#000000" stroke-width="1" fill="none"></path></g></g><g><g transform="translate(960 172) rotate(0 47.57386341989036 28.732369304737077)"><path d="M-0.9092469602823257 0.9399802118539811 C0.851570408542951 5.0885241101185485, -1.6110400587320335 19.285324946045876, 10.384806403517723 24.189904204010965 C22.38065286576748 29.094483461976054, 56.78713724712531 25.068722652395564, 71.0658318132162 30.367455759644507 C85.34452637930711 35.66618886689345, 91.71115378638109 51.737755734721816, 96.05697380006313 55.98230284750461 M0.814259656229988 0.3878658777382227 C2.9889848548763744 4.731263070792581, 0.6645450414810341 20.663697330942377, 12.773784301737324 25.302029162338002 C24.883023561993614 29.940360993733627, 59.63052858616847 22.92204960454566, 73.46969521776774 28.21785686611198 C87.308861849367 33.513664127678304, 92.09646102344928 52.423396253377824, 95.80878409133292 57.07687273173593" stroke="#000000" stroke-width="1" fill="none"></path></g><g transform="translate(960 172) rotate(0 47.57386341989036 28.732369304737077)"><path d="M75.13846651742791 35.91407260612084 C78.44132632496282 41.28995589964522, 86.7412621115777 47.01420948558867, 95.77928883717395 57.311459223916756 M72.74947411100005 36.86162192687823 C79.78325161438138 42.06313222881809, 86.12060908223877 49.09222895063251, 95.22013208405114 56.255829232921826" stroke="#000000" stroke-width="1" fill="none"></path></g><g transform="translate(960 172) rotate(0 47.57386341989036 28.732369304737077)"><path d="M93.28504583759677 26.33171061323728 C91.36027280107758 34.30099128689674, 94.48858139033193 42.75613993702848, 95.77928883717395 57.311459223916756 M90.89605343116891 27.27925993399467 C92.75645491743111 35.392227361565205, 93.8997495953635 45.16406633737071, 95.22013208405114 56.255829232921826" stroke="#000000" stroke-width="1" fill="none"></path></g></g><g><g transform="translate(724 199) rotate(0 59.18828265980352 -13.796445073862571)"><path d="M0.7220909982919692 0.8545785516500473 C14.364936247467995 0.20426819423834475, 61.492529319723445 1.4494590371847158, 81.16126669943333 -3.095151653885841 C100.83000407914321 -7.639762344956398, 112.77051727672418 -22.427201913793883, 118.73451527655125 -26.413085594773293 M-0.3579499569442124 0.2576283459272237 C13.201867759237064 -0.3547272009247291, 60.512488343625634 2.6515018199291083, 80.29788625300861 -2.1326810209546236 C100.08328416239159 -6.9168638618383556, 112.29768313130674 -24.48423535889325, 118.35443749935366 -28.447468699375168" stroke="#000000" stroke-width="1" fill="none"></path></g><g transform="translate(724 199) rotate(0 59.18828265980352 -13.796445073862571)"><path d="M105.87392462794075 -1.595684149515428 C105.81085801949831 -7.157461060421937, 111.97949177205543 -16.573082076248223, 118.33701459974982 -29.468255476513878 M104.7796043083478 -1.5318312209365743 C110.01084131772514 -12.086246948604677, 114.98014724077436 -22.17715028771685, 119.02706684828736 -27.956166320899502" stroke="#000000" stroke-width="1" fill="none"></path></g><g transform="translate(724 199) rotate(0 59.18828265980352 -13.796445073862571)"><path d="M92.03980495564505 -16.75276616679173 C95.42671515687425 -18.729528446159946, 104.94343091018645 -24.476889053075787, 118.33701459974982 -29.468255476513878 M90.9454846360521 -16.688913238212876 C101.51630735340309 -21.483490977573293, 111.74360298679498 -25.81358096726374, 119.02706684828736 -27.956166320899502" stroke="#000000" stroke-width="1" fill="none"></path></g></g></svg>